<?xml version="1.0" standalone="no"?>
<!DOCTYPE svg PUBLIC "-//W3C//DTD SVG 20010904//EN"
 "http://www.w3.org/TR/2001/REC-SVG-20010904/DTD/svg10.dtd">
<svg version="1.0" xmlns="http://www.w3.org/2000/svg"
 width="500.000000pt" height="500.000000pt" viewBox="0 0 500.000000 500.000000"
 preserveAspectRatio="xMidYMid meet">
<g transform="translate(0.000000,500.000000) scale(0.100000,-0.100000)"
fill="#000000" stroke="none">
<path d="M3510 4500 c-19 -19 -20 -33 -20 -230 0 -146 -3 -210 -11 -210 -15 0
-80 -32 -102 -50 -31 -25 -64 -92 -71 -141 -13 -94 50 -201 139 -234 38 -15
42 -20 53 -71 7 -30 54 -156 103 -281 50 -125 95 -252 101 -282 6 -31 8 -100
6 -153 -4 -84 -9 -106 -38 -164 -49 -100 -131 -152 -241 -153 -71 -1 -113 17
-164 68 l-39 41 24 17 c80 53 180 193 180 250 0 38 -16 53 -56 53 -35 0 -64
-28 -64 -62 0 -26 -33 -31 -166 -23 -99 6 -124 10 -124 22 0 8 80 110 178 226
98 117 181 217 185 224 4 6 2 22 -4 35 -27 61 -283 184 -469 226 -25 5 -70 16
-100 23 -68 15 -390 17 -440 2 -19 -6 -62 -16 -95 -24 -33 -7 -68 -16 -78 -21
-11 -6 -23 -6 -30 1 -28 23 -136 74 -187 88 -121 34 -265 38 -365 11 -153 -41
-335 -138 -335 -178 0 -10 17 -31 37 -46 81 -64 103 -88 128 -139 l26 -53 -73
-73 c-202 -204 -321 -474 -334 -759 -10 -204 28 -387 113 -555 60 -119 136
-238 207 -326 8 -9 19 -63 25 -120 19 -160 51 -251 134 -374 47 -69 164 -188
209 -211 44 -23 55 -7 68 111 23 211 60 328 111 355 11 6 54 20 95 31 71 19
104 29 313 97 46 15 86 33 89 41 8 21 -92 107 -175 150 -106 53 -192 71 -374
76 -156 4 -193 13 -255 60 -42 32 -74 103 -74 164 0 28 4 53 10 56 5 3 10 15
10 25 0 34 103 133 177 170 100 49 129 59 201 69 l54 8 -6 -31 c-3 -17 -8 -62
-11 -101 -3 -38 -8 -84 -10 -100 -3 -17 1 -39 7 -48 12 -16 17 -16 64 -2 56
16 161 80 212 129 48 45 94 114 86 129 -4 6 -4 9 1 5 4 -4 15 2 24 12 11 14
47 26 119 40 182 36 380 114 560 219 l73 43 37 -40 c125 -133 345 -148 510
-37 61 42 102 100 134 194 20 56 23 86 23 206 0 128 -2 147 -29 225 -32 94
-77 210 -108 280 -49 109 -58 132 -73 188 -12 43 -12 43 19 56 36 15 91 69
112 108 55 105 3 248 -108 298 l-40 17 2 213 c1 187 -1 215 -16 231 -22 25
-49 24 -74 -1z m70 -32 c0 -5 -4 -7 -9 -3 -5 3 -13 0 -17 -6 -4 -8 -3 -9 4 -5
13 8 14 -9 12 -189 -1 -125 -3 -145 -15 -164 -6 -11 -4 -13 9 -8 14 6 16 3 11
-13 -7 -22 36 -70 62 -70 8 0 12 -4 9 -9 -3 -5 5 -12 19 -15 14 -4 25 -11 25
-17 0 -6 6 -7 13 -3 6 4 9 3 4 -1 -4 -5 1 -17 10 -28 14 -15 18 -37 18 -98 0
-82 -11 -106 -44 -93 -11 3 -10 0 2 -14 16 -18 16 -19 -8 -30 -14 -6 -25 -16
-25 -22 0 -6 -5 -8 -10 -5 -6 4 -24 -8 -40 -25 -26 -28 -29 -37 -24 -74 4 -22
14 -50 23 -60 9 -11 11 -17 6 -13 -6 3 -17 -4 -25 -16 -12 -20 -12 -21 3 -9
24 20 43 -20 28 -57 -10 -24 -10 -25 4 -7 14 18 15 18 25 -8 5 -15 10 -31 10
-36 0 -5 10 -18 22 -30 14 -13 17 -20 8 -20 -9 0 -5 -9 11 -27 13 -15 16 -21
6 -14 -15 12 -17 12 -10 -5 3 -10 15 -31 26 -46 12 -15 17 -35 14 -47 -3 -12
-2 -19 3 -16 4 2 10 -9 14 -26 3 -17 10 -28 14 -25 5 3 7 -5 5 -17 -3 -14 2
-29 11 -36 9 -8 16 -19 16 -25 0 -6 -5 -4 -10 4 -6 9 -10 10 -10 3 0 -6 -3
-20 -6 -30 -6 -15 -4 -16 7 -5 19 18 34 15 18 -5 -8 -9 -10 -18 -4 -20 14 -4
9 -189 -5 -224 -7 -15 -9 -33 -4 -40 4 -8 3 -10 -4 -5 -8 4 -10 -5 -8 -28 1
-19 -2 -34 -7 -33 -6 1 -14 -13 -19 -30 -5 -18 -13 -33 -18 -33 -5 0 -7 -7 -4
-15 8 -20 -1 -19 -22 2 -16 16 -16 16 -9 -6 4 -15 3 -21 -3 -17 -5 3 -9 -2 -8
-11 0 -9 -9 -22 -21 -28 -13 -7 -21 -15 -18 -18 3 -4 2 -5 -2 -2 -3 3 -13 -1
-21 -8 -13 -10 -14 -9 -3 13 11 23 11 24 -3 6 -8 -10 -17 -22 -18 -27 -2 -4
-15 -10 -30 -13 -15 -2 -33 -8 -39 -12 -15 -9 -139 -22 -139 -15 0 4 -17 7
-37 9 -20 1 -47 9 -60 18 -13 8 -29 12 -36 7 -8 -4 -8 -1 1 10 12 14 11 16 -8
12 -17 -3 -20 0 -16 12 5 13 4 14 -9 3 -10 -8 -15 -9 -15 -1 0 6 -5 10 -12 9
-11 -3 -13 2 -17 34 0 6 -4 8 -8 5 -3 -4 -12 2 -20 12 -7 11 -19 18 -25 17
-33 -6 -57 -18 -62 -32 -3 -8 -10 -13 -16 -9 -10 6 -57 -20 -78 -45 -8 -8 -11
-9 -7 -2 3 6 4 12 0 12 -6 0 -57 -31 -65 -40 -6 -7 -62 -33 -75 -35 -5 -1 -13
-3 -17 -5 -5 -1 -11 -3 -15 -4 -5 -1 -17 -7 -28 -13 -47 -25 -178 -64 -198
-58 -18 5 -19 4 -7 -5 12 -9 5 -11 -30 -7 -25 3 -39 3 -32 0 27 -10 10 -23
-24 -17 -23 3 -34 2 -30 -4 4 -6 -2 -8 -14 -5 -11 3 -20 0 -20 -6 0 -6 -11
-11 -24 -11 -14 0 -31 -9 -39 -20 -8 -11 -17 -17 -21 -13 -4 4 -4 0 0 -10 3
-9 2 -17 -4 -17 -10 0 -26 -38 -22 -55 1 -5 -2 -7 -5 -3 -12 12 -45 -11 -39
-27 4 -8 2 -15 -3 -15 -4 0 -22 -12 -38 -27 -16 -16 -32 -28 -35 -28 -3 0 -4
-3 -2 -7 1 -5 -4 -8 -11 -8 -7 0 -23 -9 -35 -20 -12 -12 -22 -18 -22 -14 0 3
-8 0 -17 -7 -9 -8 -14 -9 -11 -4 3 6 -4 10 -17 10 -16 0 -20 -3 -14 -11 6 -8
4 -14 -7 -18 -9 -4 -19 -4 -22 -1 -3 3 1 5 8 5 16 0 3 15 -13 15 -7 0 -11 9
-9 20 5 43 13 152 12 180 0 34 -34 68 -59 61 -9 -3 -39 -6 -68 -8 -28 -2 -49
-6 -47 -10 2 -3 -10 -11 -27 -17 -28 -10 -30 -9 -18 6 13 15 12 15 -8 2 -12
-7 -20 -15 -18 -17 5 -6 -87 -55 -103 -55 -6 0 -10 -2 -8 -4 2 -2 -6 -15 -18
-28 -13 -15 -25 -20 -32 -14 -7 5 -11 3 -12 -6 -1 -8 -3 -21 -4 -29 -1 -8 -8
-12 -16 -8 -11 4 -14 1 -9 -12 4 -9 3 -15 -2 -11 -5 3 -12 1 -16 -5 -3 -5 -1
-10 6 -10 7 0 3 -8 -8 -17 -11 -10 -18 -24 -15 -32 2 -8 0 -11 -5 -8 -6 4 -9
-4 -7 -18 1 -14 -2 -25 -7 -25 -6 0 -6 -8 1 -19 5 -11 7 -26 4 -34 -3 -8 -1
-18 5 -22 6 -3 11 -11 11 -16 0 -6 -4 -8 -8 -5 -5 3 -9 -1 -9 -9 0 -8 3 -13 6
-11 3 2 11 -2 18 -9 7 -8 9 -15 5 -17 -4 -2 8 -19 27 -38 19 -19 31 -29 26
-21 -5 10 -4 12 4 7 8 -5 9 -12 2 -20 -7 -8 -5 -12 7 -13 26 -2 72 -22 72 -31
0 -4 17 -7 38 -7 20 1 40 0 44 -2 4 -2 58 -6 120 -8 181 -8 196 -10 191 -18
-3 -5 3 -7 13 -6 11 2 24 1 29 -2 6 -4 34 -14 64 -24 30 -10 66 -30 79 -44 14
-14 22 -20 18 -13 -10 17 2 15 21 -3 8 -8 20 -12 26 -8 7 3 9 3 5 -1 -8 -9 23
-47 33 -41 4 3 9 -2 13 -10 3 -8 1 -15 -5 -15 -6 0 -8 -4 -5 -8 3 -5 -8 -8
-24 -7 -17 1 -27 -2 -23 -8 4 -6 -4 -8 -20 -5 -19 4 -24 1 -19 -10 4 -12 0
-14 -16 -10 -12 4 -22 2 -22 -2 0 -15 -55 -28 -75 -18 -10 6 -15 6 -12 1 6 -9
-200 -80 -217 -75 -5 2 -26 -13 -46 -33 -20 -19 -39 -33 -43 -30 -4 3 -5 2 -2
-2 3 -3 -2 -17 -11 -31 -11 -17 -12 -22 -3 -16 11 6 12 5 3 -7 -12 -15 -27
-85 -38 -182 -1 -15 -6 -30 -9 -34 -4 -3 -7 -29 -7 -58 0 -78 -28 -96 -77 -47
-15 15 -31 26 -35 25 -4 -2 -12 6 -18 17 -5 10 -24 34 -40 52 -19 20 -29 40
-26 51 3 11 2 16 -1 13 -12 -12 -46 18 -62 55 -10 21 -22 36 -27 31 -4 -4 -2
2 6 12 8 11 10 17 4 13 -12 -7 -36 15 -33 29 1 5 0 16 -3 24 -13 33 -29 109
-38 175 -5 39 -12 84 -16 100 -4 23 -3 26 5 15 7 -9 11 -11 11 -3 0 7 -6 16
-14 20 -8 4 -16 13 -18 18 -2 6 -7 9 -11 7 -5 -1 -6 6 -2 17 4 14 0 21 -16 26
-17 6 -19 9 -8 16 11 7 11 9 1 9 -14 0 -61 49 -62 63 0 5 -9 21 -20 37 -11 15
-17 30 -13 34 3 3 -1 6 -10 6 -10 0 -14 5 -11 15 4 8 2 15 -4 15 -5 0 -13 7
-16 16 -3 9 -2 12 5 8 6 -3 5 3 -2 14 -7 12 -17 18 -23 15 -5 -3 -6 -1 -3 4 4
6 -3 23 -15 39 -13 16 -16 25 -8 20 8 -4 6 0 -5 9 -11 9 -19 18 -17 20 7 13 0
34 -18 55 -22 26 -26 35 -9 24 8 -5 8 -1 0 13 -12 23 -22 66 -24 108 -1 17 -8
36 -15 44 -11 12 -11 15 0 22 9 6 9 9 1 9 -17 0 -12 316 6 349 9 17 10 21 1
16 -9 -5 -10 -2 -3 11 12 23 44 145 43 158 -1 5 2 12 7 15 13 9 43 54 43 65 0
5 -7 1 -16 -10 -19 -24 -7 1 19 39 16 24 23 40 26 68 1 3 13 11 27 18 21 9 24
14 14 26 -9 11 -7 17 9 27 12 7 21 21 21 31 0 12 5 17 13 14 7 -2 18 6 24 19
8 18 8 23 0 18 -7 -3 5 10 26 31 20 20 37 40 37 46 0 5 6 9 13 9 23 1 76 75
73 103 -2 17 1 24 8 20 6 -3 -2 8 -18 25 -17 18 -24 32 -18 32 7 0 12 5 12 10
0 6 -6 10 -12 10 -7 0 -26 16 -41 35 -17 21 -33 33 -40 29 -7 -4 -9 -4 -5 1 5
5 -2 13 -15 19 -16 9 -22 20 -22 46 0 19 3 33 6 30 4 -3 16 3 27 14 12 10 27
16 34 13 7 -2 28 9 45 26 18 17 33 25 33 18 0 -9 5 -8 16 3 8 9 24 16 35 16
10 0 19 5 19 11 0 7 10 9 25 7 13 -3 22 -1 19 3 -3 5 -1 9 5 9 5 0 17 3 27 7
12 5 15 3 9 -6 -6 -10 -2 -11 16 -5 13 4 30 7 37 7 6 0 12 4 12 8 0 10 106 6
116 -4 4 -4 17 -7 28 -6 21 0 21 1 1 9 -14 7 -8 8 20 4 22 -4 44 -10 49 -14 5
-5 14 -6 21 -4 7 3 16 1 20 -5 3 -6 12 -11 18 -11 7 0 6 4 -3 10 -10 7 -11 10
-2 10 7 0 15 -7 18 -15 4 -8 13 -15 21 -15 32 0 92 -23 86 -33 -3 -6 -1 -7 6
-3 13 9 43 -12 36 -24 -4 -7 39 -7 128 -1 10 0 15 5 12 11 -3 6 1 7 10 4 8 -4
22 -1 30 6 9 7 18 10 22 7 3 -4 12 -2 20 4 9 9 13 8 13 0 0 -8 5 -9 19 -1 29
15 206 23 296 12 44 -5 82 -5 83 0 2 4 9 5 15 1 16 -10 36 -15 72 -18 17 -1
36 -3 43 -4 7 0 10 -6 7 -11 -4 -6 9 -9 34 -7 22 2 38 0 35 -5 -3 -4 13 -11
35 -14 23 -4 38 -10 35 -15 -3 -5 4 -9 15 -9 11 0 23 -5 26 -11 4 -5 12 -8 18
-6 16 6 49 -12 43 -22 -3 -5 6 -7 19 -5 14 1 35 -6 48 -17 14 -10 28 -15 32
-11 5 4 5 1 1 -5 -7 -12 5 -18 27 -14 5 1 6 -3 2 -9 -3 -5 1 -11 9 -11 9 -1
20 -2 25 -3 5 0 18 -12 28 -25 20 -24 20 -26 2 -55 -10 -17 -36 -47 -58 -67
-30 -29 -37 -40 -28 -49 9 -10 9 -11 -1 -5 -8 4 -22 -2 -35 -16 -12 -13 -21
-25 -19 -26 8 -10 -1 -21 -13 -16 -9 3 -15 2 -14 -3 4 -23 -2 -36 -15 -31 -10
4 -13 1 -9 -9 3 -8 -1 -14 -9 -14 -7 0 -19 -9 -26 -21 -10 -15 -10 -19 -1 -14
8 6 10 4 5 -4 -5 -7 -14 -10 -21 -7 -7 2 -12 -3 -11 -12 0 -9 -4 -16 -10 -15
-6 1 -11 -8 -10 -20 1 -13 -4 -21 -12 -19 -8 1 -16 -7 -19 -18 -3 -11 -9 -17
-14 -14 -5 3 -6 -2 -3 -10 3 -9 0 -18 -8 -21 -14 -6 -16 -71 -2 -83 4 -4 4 1
1 11 -4 9 -2 17 3 17 6 0 10 -4 10 -8 0 -5 6 -9 13 -10 6 -1 28 -3 47 -5 20
-3 38 0 42 7 4 6 8 7 8 1 0 -12 119 -12 167 0 19 4 30 12 26 18 -4 6 0 8 9 5
10 -4 14 0 14 14 -1 12 8 24 22 29 18 7 22 5 22 -11 0 -10 -4 -22 -10 -25 -5
-3 -10 -12 -10 -18 0 -7 4 -6 10 3 6 9 10 10 10 3 0 -6 -4 -15 -10 -18 -5 -3
-10 -14 -10 -25 0 -10 -7 -20 -15 -24 -8 -3 -15 -12 -15 -20 0 -7 -7 -17 -16
-20 -8 -3 -12 -11 -8 -17 4 -7 3 -9 -3 -6 -6 4 -27 -11 -46 -32 -20 -22 -39
-36 -43 -33 -4 4 -5 -1 -1 -10 3 -10 -1 -19 -11 -23 -15 -6 -14 -9 6 -25 12
-10 22 -22 21 -27 -1 -4 -1 -15 0 -23 1 -13 2 -13 11 0 9 13 10 13 10 0 1 -18
47 -53 59 -45 5 3 12 1 16 -5 3 -5 15 -10 26 -10 10 0 19 -3 19 -7 0 -5 27 -6
60 -5 33 2 60 8 60 13 0 6 6 9 13 7 24 -4 61 15 100 53 22 21 45 35 50 32 6
-3 7 -1 3 5 -3 6 -1 14 5 17 5 4 8 14 4 23 -3 9 -3 13 1 9 9 -9 35 13 28 24
-2 5 2 20 11 33 9 14 13 31 9 37 -5 9 -2 10 11 5 14 -5 16 -4 6 7 -16 20 -10
67 8 67 11 0 10 4 -5 15 -15 12 -16 16 -5 24 11 7 10 25 -5 109 -10 55 -21 99
-24 97 -3 -2 -7 8 -8 23 -1 14 -9 36 -17 49 -12 17 -12 23 -3 23 8 0 9 3 3 8
-23 16 -34 49 -22 62 8 9 8 11 1 7 -7 -4 -19 4 -28 18 -15 23 -15 24 1 18 17
-5 17 -5 0 8 -20 16 -47 85 -42 111 3 12 -1 15 -12 11 -12 -5 -14 -1 -8 15 4
14 2 22 -5 22 -6 0 -8 5 -5 10 3 6 2 10 -3 10 -9 0 -20 29 -29 74 -2 11 -8 24
-13 30 -5 7 -7 23 -6 38 2 17 -1 25 -9 22 -7 -3 -15 2 -18 10 -4 9 -15 16 -26
16 -11 0 -25 8 -30 18 -6 10 -11 12 -11 4 0 -17 -31 14 -55 55 -10 18 -23 29
-28 26 -5 -3 -4 4 2 15 14 26 15 54 1 32 -7 -11 -8 -9 -6 11 1 13 5 30 9 36 4
6 1 14 -5 16 -10 4 -10 8 1 15 8 6 10 15 6 22 -6 9 -4 11 4 6 8 -5 11 -3 10 5
-5 21 21 60 33 53 6 -4 8 -3 5 3 -8 12 20 39 30 29 3 -3 2 -6 -3 -6 -5 0 -10
-9 -10 -20 0 -27 5 -25 17 8 10 30 61 66 74 54 5 -4 5 -1 1 6 -4 6 -2 12 4 12
6 0 9 4 6 8 -3 5 -1 35 3 68 5 32 6 64 2 69 -3 6 -6 67 -6 137 0 120 3 133 28
129 4 0 7 3 7 9 0 5 7 7 15 4 8 -4 15 -10 15 -16z"/>
<path d="M3529 3965 c-3 -2 -20 -6 -38 -7 -68 -5 -111 -121 -68 -183 12 -16
27 -33 34 -38 6 -4 18 -14 26 -22 22 -21 117 -5 135 24 8 11 19 21 24 21 6 0
4 -8 -3 -17 -11 -15 -11 -16 1 -6 17 16 23 46 7 36 -7 -4 -6 1 2 10 25 31 23
77 -6 123 -15 23 -30 41 -34 38 -4 -2 -12 3 -19 11 -12 14 -51 21 -61 10z m80
-56 c24 -24 31 -39 31 -71 0 -117 -177 -138 -206 -24 -25 103 100 171 175 95z"/>
<path d="M3631 3944 c-1 -6 9 -19 21 -30 14 -12 18 -13 10 -3 -6 9 -8 20 -4
24 4 5 2 5 -5 2 -6 -4 -14 -1 -16 5 -3 8 -6 8 -6 2z"/>
<path d="M2795 3391 c-16 -3 -30 -11 -30 -18 0 -6 -4 -15 -9 -20 -5 -5 -6 -3
-2 5 4 6 3 12 -2 12 -8 0 -15 -13 -26 -50 -1 -3 -5 -10 -9 -17 -4 -7 -5 -22
-2 -35 8 -38 16 -82 17 -95 1 -10 4 -10 17 0 10 8 13 8 8 0 -5 -7 9 -17 37
-28 50 -19 95 -11 133 25 12 10 24 16 28 12 5 -4 5 3 2 15 -3 13 -2 25 2 27 4
3 8 26 10 51 1 35 -1 45 -10 39 -9 -5 -10 -2 -6 10 4 9 3 15 -1 13 -9 -6 -33
19 -26 26 3 3 -4 8 -15 12 -12 3 -18 11 -15 17 4 6 -2 6 -15 -1 -14 -8 -21 -8
-21 -1 0 11 -18 11 -65 1z m117 -58 c53 -50 32 -140 -38 -169 -65 -27 -134 26
-134 103 1 93 103 132 172 66z"/>
<path d="M2393 3278 c-22 -25 -37 -58 -34 -72 1 -5 -8 -6 -21 -3 -19 5 -20 4
-8 -6 15 -12 16 -72 1 -63 -4 3 -8 -45 -10 -105 -2 -80 1 -115 11 -127 7 -9 8
-13 3 -10 -6 4 -11 -2 -11 -12 0 -10 5 -16 10 -13 5 4 7 -1 3 -9 -3 -9 5 -32
19 -51 17 -25 20 -37 11 -40 -7 -3 -5 -6 6 -6 9 -1 17 -5 17 -10 0 -4 22 -31
48 -59 27 -29 47 -54 44 -57 -3 -3 0 -5 7 -5 7 0 9 -5 5 -12 -4 -7 -4 -10 1
-6 4 4 14 3 22 -3 7 -6 13 -8 13 -5 0 4 10 0 22 -8 12 -9 31 -16 41 -16 11 0
15 -4 11 -12 -4 -6 -3 -8 4 -5 5 4 18 4 27 1 11 -5 13 -9 5 -14 -6 -4 3 -7 20
-7 20 0 26 3 18 9 -7 4 -8 8 -3 8 6 0 16 -5 22 -11 5 -5 25 -12 44 -14 26 -4
30 -2 19 6 -12 9 -11 10 8 6 12 -3 20 -1 16 4 -3 5 3 9 12 9 10 0 14 3 10 7
-4 4 -25 6 -47 4 -165 -12 -345 126 -397 305 -20 69 -15 238 9 306 28 78 44
109 54 100 5 -4 5 -1 1 6 -9 16 -9 16 -33 -10z"/>
<path d="M2422 3133 c6 -163 25 -231 94 -335 56 -83 119 -140 200 -178 70 -34
84 -36 84 -15 0 8 -3 14 -7 14 -20 -3 -34 2 -28 10 3 6 -6 8 -21 5 -16 -3 -23
-1 -19 6 3 5 1 10 -5 10 -6 0 -8 5 -4 11 4 8 -1 9 -16 4 -16 -5 -26 -1 -37 14
-8 12 -19 19 -24 16 -5 -3 -6 2 -2 11 4 10 2 15 -3 12 -13 -9 -47 19 -39 31 3
6 0 11 -7 11 -12 0 -42 36 -43 52 0 4 -10 17 -23 28 -19 18 -21 24 -10 38 11
14 10 15 -5 9 -15 -6 -17 -3 -12 13 4 11 2 20 -3 20 -12 0 -34 49 -27 61 3 4
1 27 -5 50 -6 22 -12 77 -14 123 -1 45 -6 88 -11 95 -5 10 -4 12 3 7 7 -4 12
-2 12 3 0 6 -7 11 -16 11 -15 0 -16 -15 -12 -137z"/>
</g>
</svg>
